<?xml version="1.0" standalone="no"?>
<!DOCTYPE svg PUBLIC "-//W3C//DTD SVG 20010904//EN"
 "http://www.w3.org/TR/2001/REC-SVG-20010904/DTD/svg10.dtd">
<svg version="1.0" xmlns="http://www.w3.org/2000/svg"
 width="16" height="16" fill="currentColor" viewBox="0 0 1114.000000 1280.000000"
 preserveAspectRatio="xMidYMid meet">
<metadata>
Created by potrace 1.15, written by Peter Selinger 2001-2017
</metadata>
<g transform="translate(0.000000,1280.000000) scale(0.100000,-0.100000)"
stroke="none">
<path d="M4658 12769 l-31 -30 7 -137 c4 -75 11 -211 16 -302 5 -91 10 -248
10 -350 1 -224 6 -254 56 -298 80 -69 364 -214 614 -313 86 -34 147 -65 170
-85 l35 -32 3 -146 c3 -109 0 -146 -9 -146 -6 0 -316 81 -688 180 -738 196
-804 214 -901 240 -36 10 -103 28 -150 40 -47 12 -114 30 -150 40 -36 10 -103
28 -150 40 -47 12 -114 30 -150 40 -36 10 -103 28 -150 40 -47 12 -114 30
-150 40 -36 10 -101 27 -145 39 -44 11 -147 39 -230 61 -1220 325 -1198 320
-1342 320 -321 0 -629 -162 -878 -461 -215 -258 -378 -616 -423 -929 -22 -152
-23 -195 -8 -300 8 -58 74 -521 146 -1030 72 -509 141 -998 154 -1088 13 -90
27 -167 32 -172 8 -8 460 -219 1519 -711 94 -43 415 -193 715 -332 l545 -254
7 -169 c3 -93 11 -358 17 -589 7 -231 16 -580 21 -775 15 -525 29 -1050 40
-1450 5 -195 14 -526 20 -735 15 -552 28 -1037 40 -1475 6 -212 14 -517 19
-678 4 -161 12 -296 17 -301 5 -4 208 -87 451 -182 l443 -174 0 -80 c0 -143
-13 -146 208 57 l197 180 -3 132 c-1 72 -7 379 -12 681 -11 606 -24 1323 -60
3230 -5 286 -14 780 -20 1099 -6 318 -9 580 -7 582 2 2 104 -43 228 -100 681
-316 804 -376 800 -388 -7 -25 -2 -50 14 -68 30 -33 102 -60 158 -60 29 0 145
-18 258 -40 187 -36 367 -70 789 -151 85 -16 175 -34 200 -39 25 -5 119 -23
210 -40 91 -17 185 -35 210 -40 25 -5 142 -28 260 -50 118 -22 235 -45 260
-50 25 -5 115 -23 200 -39 85 -16 218 -42 295 -57 135 -26 148 -26 380 -21
448 11 843 74 1210 194 224 73 477 194 628 301 l89 63 37 -28 c70 -53 113 -97
132 -134 10 -21 19 -41 19 -44 0 -10 -46 -4 -108 14 -60 19 -106 24 -179 22
-49 -1 -98 -50 -113 -111 -11 -45 -10 -53 8 -82 29 -47 71 -84 114 -102 44
-19 199 -22 246 -5 19 6 72 56 141 132 164 183 155 167 148 245 -8 88 -20 126
-59 192 -29 48 -115 131 -148 142 -7 2 1 25 24 62 19 32 40 73 45 90 14 48 22
240 11 296 -36 190 -243 375 -557 501 -206 82 -263 97 -449 118 -98 11 -676
75 -1284 142 -608 67 -1107 124 -1109 125 -2 2 1 81 8 176 6 95 16 243 21 328
6 85 15 216 20 290 5 74 13 191 16 259 l7 123 42 -5 42 -6 12 182 c6 100 16
245 21 322 15 228 29 439 40 620 6 94 12 191 15 217 9 104 -51 390 -119 568
-92 238 -238 401 -414 462 -101 35 -264 32 -385 -6 -62 -19 -98 -25 -120 -20
-57 12 -919 243 -923 247 -2 2 -9 348 -14 768 -5 420 -12 785 -16 810 -7 60
-36 105 -76 124 -18 8 -197 55 -398 104 -201 49 -431 106 -511 125 -81 20
-156 36 -168 36 -13 0 -36 -14 -53 -31z"/>
</g>
</svg>
